<svg xmlns="http://www.w3.org/2000/svg" viewBox="0 0 512 512">
  <rect width="512" height="512" fill="#050505"/>
  <rect x="58" y="142" width="396" height="250" rx="26" fill="#bf1f2e"/>
  <g opacity="0.78">
    <rect x="120" y="168" width="72" height="12" rx="6" fill="#1d0f10"/>
    <rect x="208" y="168" width="72" height="12" rx="6" fill="#1d0f10"/>
    <rect x="296" y="168" width="72" height="12" rx="6" fill="#1d0f10"/>
  </g>
  <path d="M95 323L175 242L210 275L265 220L330 291L410 239L428 323L95 323Z" fill="#120c0d"/>
  <path d="M115 323L183 258L224 286L263 236L302 291L352 250L398 323H115Z" fill="#1f1416" opacity="0.9"/>
  <g stroke="#d8d1d1" stroke-width="4" stroke-linecap="round" opacity="0.55">
    <path d="M178 280L155 300"/>
    <path d="M190 270L162 296"/>
    <path d="M203 260L173 296"/>
    <path d="M216 249L186 295"/>
    <path d="M228 238L198 294"/>
    <path d="M242 228L210 291"/>
    <path d="M256 220L225 287"/>
    <path d="M275 225L248 286"/>
    <path d="M294 239L264 295"/>
    <path d="M314 250L283 293"/>
    <path d="M334 260L299 294"/>
    <path d="M350 272L315 298"/>
  </g>
  <text x="256" y="460" text-anchor="middle" font-size="78" font-family="Arial, Helvetica, sans-serif" font-weight="800" letter-spacing="11" fill="#bb1f2a">DUERRE</text>
</svg>
